<svg width="35" height="25" viewBox="0 0 35 25" fill="none" xmlns="http://www.w3.org/2000/svg">
<path d="M7.64 24.384C6.232 24.384 4.99467 24.16 3.928 23.712C2.86133 23.2427 2.008 22.6027 1.368 21.792C0.728 20.9813 0.344 20.0427 0.216 18.976H4.344C4.472 19.5947 4.81333 20.128 5.368 20.576C5.944 21.0027 6.68 21.216 7.576 21.216C8.472 21.216 9.12267 21.0347 9.528 20.672C9.95467 20.3093 10.168 19.8933 10.168 19.424C10.168 18.7413 9.86933 18.2827 9.272 18.048C8.67467 17.792 7.84267 17.5467 6.776 17.312C6.09333 17.1627 5.4 16.9813 4.696 16.768C3.992 16.5547 3.34133 16.288 2.744 15.968C2.168 15.6267 1.69867 15.2 1.336 14.688C0.973333 14.1547 0.792 13.504 0.792 12.736C0.792 11.328 1.34667 10.144 2.456 9.184C3.58667 8.224 5.16533 7.744 7.192 7.744C9.06933 7.744 10.5627 8.18133 11.672 9.056C12.8027 9.93067 13.4747 11.136 13.688 12.672H9.816C9.58133 11.4987 8.696 10.912 7.16 10.912C6.392 10.912 5.79467 11.0613 5.368 11.36C4.96267 11.6587 4.76 12.032 4.76 12.48C4.76 12.9493 5.06933 13.3227 5.688 13.6C6.30667 13.8773 7.128 14.1333 8.152 14.368C9.26133 14.624 10.2747 14.912 11.192 15.232C12.1307 15.5307 12.8773 15.9893 13.432 16.608C13.9867 17.2053 14.264 18.0693 14.264 19.2C14.2853 20.1813 14.0293 21.0667 13.496 21.856C12.9627 22.6453 12.1947 23.264 11.192 23.712C10.1893 24.16 9.00533 24.384 7.64 24.384Z" fill="#170F49"/>
<path d="M25.1885 24.384C23.6952 24.384 22.3618 24.0213 21.1885 23.296C20.0152 22.5707 19.0872 21.5787 18.4045 20.32C17.7218 19.0613 17.3805 17.632 17.3805 16.032C17.3805 14.432 17.7218 13.0133 18.4045 11.776C19.0872 10.5173 20.0152 9.536 21.1885 8.832C22.3618 8.10667 23.6952 7.744 25.1885 7.744C26.3832 7.744 27.4285 7.968 28.3245 8.416C29.2205 8.864 29.9458 9.49333 30.5005 10.304V0.959999H34.5965V24H30.9485L30.5005 21.728C29.9885 22.432 29.3058 23.0507 28.4525 23.584C27.6205 24.1173 26.5325 24.384 25.1885 24.384ZM26.0525 20.8C27.3752 20.8 28.4525 20.3627 29.2845 19.488C30.1378 18.592 30.5645 17.4507 30.5645 16.064C30.5645 14.6773 30.1378 13.5467 29.2845 12.672C28.4525 11.776 27.3752 11.328 26.0525 11.328C24.7512 11.328 23.6738 11.7653 22.8205 12.64C21.9672 13.5147 21.5405 14.6453 21.5405 16.032C21.5405 17.4187 21.9672 18.56 22.8205 19.456C23.6738 20.352 24.7512 20.8 26.0525 20.8Z" fill="#8752F3"/>
</svg>
