<svg width="133" height="33" viewBox="0 0 133 33" fill="none" xmlns="http://www.w3.org/2000/svg">
<path d="M8.18 25.408C6.684 25.408 5.36933 25.17 4.236 24.694C3.10267 24.1953 2.196 23.5153 1.516 22.654C0.836 21.7927 0.428 20.7953 0.292 19.662H4.678C4.814 20.3193 5.17667 20.886 5.766 21.362C6.378 21.8153 7.16 22.042 8.112 22.042C9.064 22.042 9.75533 21.8493 10.186 21.464C10.6393 21.0787 10.866 20.6367 10.866 20.138C10.866 19.4127 10.5487 18.9253 9.914 18.676C9.27933 18.404 8.39533 18.1433 7.262 17.894C6.53667 17.7353 5.8 17.5427 5.052 17.316C4.304 17.0893 3.61267 16.806 2.978 16.466C2.366 16.1033 1.86733 15.65 1.482 15.106C1.09667 14.5393 0.904 13.848 0.904 13.032C0.904 11.536 1.49333 10.278 2.672 9.258C3.87333 8.238 5.55067 7.728 7.704 7.728C9.69867 7.728 11.2853 8.19267 12.464 9.122C13.6653 10.0513 14.3793 11.332 14.606 12.964H10.492C10.2427 11.7173 9.302 11.094 7.67 11.094C6.854 11.094 6.21933 11.2527 5.766 11.57C5.33533 11.8873 5.12 12.284 5.12 12.76C5.12 13.2587 5.44867 13.6553 6.106 13.95C6.76333 14.2447 7.636 14.5167 8.724 14.766C9.90267 15.038 10.9793 15.344 11.954 15.684C12.9513 16.0013 13.7447 16.4887 14.334 17.146C14.9233 17.7807 15.218 18.6987 15.218 19.9C15.2407 20.9427 14.9687 21.8833 14.402 22.722C13.8353 23.5607 13.0193 24.218 11.954 24.694C10.8887 25.17 9.63067 25.408 8.18 25.408ZM26.056 25C24.288 25 22.8714 24.5693 21.806 23.708C20.7407 22.8467 20.208 21.3167 20.208 19.118V11.774H17.318V8.136H20.208L20.718 3.614H24.56V8.136H29.116V11.774H24.56V19.152C24.56 19.968 24.73 20.5347 25.07 20.852C25.4327 21.1467 26.0447 21.294 26.906 21.294H29.014V25H26.056ZM40.6149 25.408C38.9149 25.408 37.4076 25.0453 36.0929 24.32C34.7783 23.5947 33.7469 22.5747 32.9989 21.26C32.2509 19.9453 31.8769 18.4267 31.8769 16.704C31.8769 14.9587 32.2396 13.406 32.9649 12.046C33.7129 10.686 34.7329 9.632 36.0249 8.884C37.3396 8.11333 38.8809 7.728 40.6489 7.728C42.3036 7.728 43.7656 8.09067 45.0349 8.816C46.3043 9.54133 47.2903 10.5387 47.9929 11.808C48.7183 13.0547 49.0809 14.4487 49.0809 15.99C49.0809 16.2393 49.0696 16.5 49.0469 16.772C49.0469 17.044 49.0356 17.3273 49.0129 17.622H36.1949C36.2856 18.9367 36.7389 19.968 37.5549 20.716C38.3936 21.464 39.4023 21.838 40.5809 21.838C41.4649 21.838 42.2016 21.6453 42.7909 21.26C43.4029 20.852 43.8563 20.3307 44.1509 19.696H48.5709C48.2536 20.7613 47.7209 21.736 46.9729 22.62C46.2476 23.4813 45.3409 24.1613 44.2529 24.66C43.1876 25.1587 41.9749 25.408 40.6149 25.408ZM40.6489 11.264C39.5836 11.264 38.6429 11.57 37.8269 12.182C37.0109 12.7713 36.4896 13.678 36.2629 14.902H44.6609C44.5929 13.7913 44.1849 12.9073 43.4369 12.25C42.6889 11.5927 41.7596 11.264 40.6489 11.264ZM52.7413 32.48V8.136H56.6173L57.0933 10.55C57.6373 9.802 58.3513 9.14467 59.2353 8.578C60.1419 8.01133 61.3093 7.728 62.7373 7.728C64.3239 7.728 65.7406 8.11333 66.9873 8.884C68.2339 9.65467 69.2199 10.7087 69.9453 12.046C70.6706 13.3833 71.0333 14.902 71.0333 16.602C71.0333 18.302 70.6706 19.8207 69.9453 21.158C69.2199 22.4727 68.2339 23.5153 66.9873 24.286C65.7406 25.034 64.3239 25.408 62.7373 25.408C61.4679 25.408 60.3573 25.17 59.4053 24.694C58.4533 24.218 57.6826 23.5493 57.0933 22.688V32.48H52.7413ZM61.8193 21.6C63.2019 21.6 64.3466 21.1353 65.2533 20.206C66.1599 19.2767 66.6133 18.0753 66.6133 16.602C66.6133 15.1287 66.1599 13.916 65.2533 12.964C64.3466 12.012 63.2019 11.536 61.8193 11.536C60.4139 11.536 59.2579 12.012 58.3513 12.964C57.4673 13.8933 57.0253 15.0947 57.0253 16.568C57.0253 18.0413 57.4673 19.254 58.3513 20.206C59.2579 21.1353 60.4139 21.6 61.8193 21.6Z" fill="#170F49"/>
<path d="M82.6729 25.408C81.0863 25.408 79.6696 25.0227 78.4229 24.252C77.1763 23.4813 76.1903 22.4273 75.4649 21.09C74.7396 19.7527 74.3769 18.234 74.3769 16.534C74.3769 14.834 74.7396 13.3267 75.4649 12.012C76.1903 10.6747 77.1763 9.632 78.4229 8.884C79.6696 8.11333 81.0863 7.728 82.6729 7.728C83.9423 7.728 85.0529 7.966 86.0049 8.442C86.9569 8.918 87.7276 9.58667 88.3169 10.448V0.519999H92.6689V25H88.7929L88.3169 22.586C87.7729 23.334 87.0476 23.9913 86.1409 24.558C85.2569 25.1247 84.1009 25.408 82.6729 25.408ZM83.5909 21.6C84.9963 21.6 86.1409 21.1353 87.0249 20.206C87.9316 19.254 88.3849 18.0413 88.3849 16.568C88.3849 15.0947 87.9316 13.8933 87.0249 12.964C86.1409 12.012 84.9963 11.536 83.5909 11.536C82.2083 11.536 81.0636 12.0007 80.1569 12.93C79.2503 13.8593 78.7969 15.0607 78.7969 16.534C78.7969 18.0073 79.2503 19.22 80.1569 20.172C81.0636 21.124 82.2083 21.6 83.5909 21.6ZM105.295 25.408C103.595 25.408 102.087 25.0453 100.773 24.32C99.458 23.5947 98.4266 22.5747 97.6786 21.26C96.9306 19.9453 96.5566 18.4267 96.5566 16.704C96.5566 14.9587 96.9193 13.406 97.6446 12.046C98.3926 10.686 99.4126 9.632 100.705 8.884C102.019 8.11333 103.561 7.728 105.329 7.728C106.983 7.728 108.445 8.09067 109.715 8.816C110.984 9.54133 111.97 10.5387 112.673 11.808C113.398 13.0547 113.761 14.4487 113.761 15.99C113.761 16.2393 113.749 16.5 113.727 16.772C113.727 17.044 113.715 17.3273 113.693 17.622H100.875C100.965 18.9367 101.419 19.968 102.235 20.716C103.073 21.464 104.082 21.838 105.261 21.838C106.145 21.838 106.881 21.6453 107.471 21.26C108.083 20.852 108.536 20.3307 108.831 19.696H113.251C112.933 20.7613 112.401 21.736 111.653 22.62C110.927 23.4813 110.021 24.1613 108.933 24.66C107.867 25.1587 106.655 25.408 105.295 25.408ZM105.329 11.264C104.263 11.264 103.323 11.57 102.507 12.182C101.691 12.7713 101.169 13.678 100.943 14.902H109.341C109.273 13.7913 108.865 12.9073 108.117 12.25C107.369 11.5927 106.439 11.264 105.329 11.264ZM121.313 25L115.125 8.136H119.681L123.965 20.886L128.249 8.136H132.805L126.583 25H121.313Z" fill="#8752F3"/>
</svg>
